solid 1984 Ericson 38-200
facet normal -0.0 -0.0 1.0
  outer loop
    vertex 9.103828801926284e-15 273.59576333019623 606.1350847087552
    vertex 1.0523438477010623 283.8347408349507 606.1350847087552
    vertex -7.993605777301127e-15 284.33556333019624 606.1350847087552
  endloop
endfacet
facet normal -0.0 -0.0 1.0
  outer loop
    vertex 1.0523438477010623 283.8347408349507 606.1350847087552
    vertex 9.103828801926284e-15 273.59576333019623 606.1350847087552
    vertex 1.0523438477010778 274.0965858254417 606.1350847087552
  endloop
endfacet
facet normal -0.0 -0.0 1.0
  outer loop
    vertex 1.0523438477010623 283.8347408349507 606.1350847087552
    vertex 1.0523438477010778 274.0965858254417 606.1350847087552
    vertex 1.9808163300508665 283.13033356989916 606.1350847087552
  endloop
endfacet
facet normal -0.0 -0.0 1.0
  outer loop
    vertex 1.9808163300508665 283.13033356989916 606.1350847087552
    vertex 1.0523438477010778 274.0965858254417 606.1350847087552
    vertex 1.9808163300508799 274.80099309049325 606.1350847087552
  endloop
endfacet
facet normal -0.0 -0.0 1.0
  outer loop
    vertex 1.9808163300508665 283.13033356989916 606.1350847087552
    vertex 1.9808163300508799 274.80099309049325 606.1350847087552
    vertex 2.7465963651492156 282.2517940526417 606.1350847087552
  endloop
endfacet
facet normal -0.0 -0.0 1.0
  outer loop
    vertex 2.7465963651492156 282.2517940526417 606.1350847087552
    vertex 1.9808163300508799 274.80099309049325 606.1350847087552
    vertex 2.7465963651492253 275.67953260775073 606.1350847087552
  endloop
endfacet
facet normal -0.0 -0.0 1.0
  outer loop
    vertex 2.7465963651492156 282.2517940526417 606.1350847087552
    vertex 2.7465963651492253 275.67953260775073 606.1350847087552
    vertex 3.3176653309849917 281.2358555792106 606.1350847087552
  endloop
endfacet
facet normal -0.0 -0.0 1.0
  outer loop
    vertex 3.3176653309849917 281.2358555792106 606.1350847087552
    vertex 2.7465963651492253 275.67953260775073 606.1350847087552
    vertex 3.317665330984999 276.69547108118184 606.1350847087552
  endloop
endfacet
facet normal -0.0 -0.0 1.0
  outer loop
    vertex 3.3176653309849917 281.2358555792106 606.1350847087552
    vertex 3.317665330984999 276.69547108118184 606.1350847087552
    vertex 3.6701458208339157 280.12499633978643 606.1350847087552
  endloop
endfacet
facet normal -0.0 -0.0 1.0
  outer loop
    vertex 3.6701458208339157 280.12499633978643 606.1350847087552
    vertex 3.317665330984999 276.69547108118184 606.1350847087552
    vertex 3.6701458208339184 277.80633032060604 606.1350847087552
  endloop
endfacet
facet normal -0.0 -0.0 1.0
  outer loop
    vertex 3.6701458208339157 280.12499633978643 606.1350847087552
    vertex 3.6701458208339184 277.80633032060604 606.1350847087552
    vertex 3.7893000000000012 278.9656633301962 606.1350847087552
  endloop
endfacet
facet normal 0.0 -1.0 0.0
  outer loop
    vertex 3.7893000000000012 278.9656633301962 593.2285564974106
    vertex 3.7893000000000012 278.9656633301962 437.4046614728214
    vertex 36.288491946541264 278.9656633301962 438.7542031216297
  endloop
endfacet
facet normal -0.25444569473929735 -0.9670870635204653 0.0
  outer loop
    vertex 3.7893000000000012 278.9656633301962 246.14591534311916
    vertex 3.7893000000000012 278.9656633301962 44.25608470875508
    vertex 49.94017146146025 266.82312622594844 44.25608470875504
  endloop
endfacet
facet normal 0.3881284848421713 -0.9216052730177495 -9.186951831676879e-18
  outer loop
    vertex 3.7893000000000012 278.9656633301962 246.14591534311916
    vertex 3.7893000000000012 278.9656633301962 44.25608470875508
    vertex 45.25156364385648 296.4272448091324 44.25608470875508
  endloop
endfacet
facet normal 0.9942003506413899 0.08338952855823124 0.06791059793120313
  outer loop
    vertex 54.91310367135864 279.8714185892087 259.0856215325875
    vertex 54.745980196545986 280.2384300552971 261.0816178609365
    vertex 54.77802749108896 279.8568522700578 261.0810017589776
  endloop
endfacet
facet normal 0.9942003506413899 0.08338952855823124 0.06791059793120313
  outer loop
    vertex 54.745980196545986 280.2384300552971 261.0816178609365
    vertex 54.91310367135864 279.8714185892087 259.0856215325875
    vertex 54.88105637681563 280.2529963744482 259.08623763454625
  endloop
endfacet
facet normal 0.9115341425451263 -0.40700829124555515 0.05873463911436702
  outer loop
    vertex 54.630941311697725 278.76924762803 259.05847483291495
    vertex 54.6511936260511 279.1044402225689 261.0669231850482
    vertex 54.49586513142802 278.7546813088796 261.053855059305
  endloop
endfacet
facet normal 0.9115341425451263 -0.40700829124555515 0.05873463911436702
  outer loop
    vertex 54.6511936260511 279.1044402225689 261.0669231850482
    vertex 54.630941311697725 278.76924762803 259.05847483291495
    vertex 54.78626980632081 279.1190065417196 259.07154295865774
  endloop
endfacet
facet normal -0.0002017799627546766 0.9999734351639403 0.0072861684907506215
  outer loop
    vertex -0.013291514623768763 281.87276770585225 257.38664941544215
    vertex 53.336569075046015 281.8718248158255 258.9935018887347
    vertex 0.12178466564593576 281.88733402500293 255.39126918905131
  endloop
endfacet
facet normal -0.0002017799627546766 0.9999734351639403 0.0072861684907506215
  outer loop
    vertex 53.336569075046015 281.8718248158255 258.9935018887347
    vertex -0.013291514623768763 281.87276770585225 257.38664941544215
    vertex 53.20149289477639 281.85725849667483 260.9888821151259
  endloop
endfacet
facet normal 0.9663186489413904 0.24841233342804903 0.06722783135664563
  outer loop
    vertex 54.88105637681563 280.2529963744482 259.08623763454625
    vertex 54.65088995969887 280.6093383363662 261.07788841755666
    vertex 54.745980196545986 280.2384300552971 261.0816178609365
  endloop
endfacet
facet normal 0.9663186489413904 0.24841233342804903 0.06722783135664563
  outer loop
    vertex 54.65088995969887 280.6093383363662 261.07788841755666
    vertex 54.88105637681563 280.2529963744482 259.08623763454625
    vertex 54.78596613996854 280.62390465551744 259.082508191166
  endloop
endfacet
facet normal 0.6030257091126071 0.796357443597001 0.04663492443316189
  outer loop
    vertex 53.71796280050299 281.7889614407825 261.02334569478245
    vertex 54.15740718933581 281.5719434575214 259.0468789384408
    vertex 53.85303898077275 281.80352775993543 259.0279654683916
  endloop
endfacet
facet normal 0.6030257091126071 0.796357443597001 0.04663492443316189
  outer loop
    vertex 54.15740718933581 281.5719434575214 259.0468789384408
    vertex 53.71796280050299 281.7889614407825 261.02334569478245
    vertex 54.02233100906622 281.5573771383703 261.04225916483216
  endloop
endfacet
facet normal 0.1300281049318961 0.9913805693934651 0.01603928168306269
  outer loop
    vertex 53.20149289477639 281.85725849667483 260.9888821151259
    vertex 53.85303898077275 281.80352775993543 259.0279654683916
    vertex 53.336569075046015 281.8718248158255 258.9935018887347
  endloop
endfacet
facet normal 0.1300281049318961 0.9913805693934651 0.01603928168306269
  outer loop
    vertex 53.85303898077275 281.80352775993543 259.0279654683916
    vertex 53.20149289477639 281.85725849667483 260.9888821151259
    vertex 53.71796280050299 281.7889614407825 261.02334569478245
  endloop
endfacet
facet normal 0.0002017799627546766 -0.9999734351639403 -0.0072861684907506215
  outer loop
    vertex 53.33737619489715 277.87193107517055 258.9643572147719
    vertex -0.012484394772745933 277.8728739651963 257.35750474147903
    vertex 0.12259178549696276 277.88744028434746 255.36212451508854
  endloop
endfacet
facet normal 0.0002017799627546766 -0.9999734351639403 -0.0072861684907506215
  outer loop
    vertex -0.012484394772745933 277.8728739651963 257.35750474147903
    vertex 53.33737619489715 277.87193107517055 258.9643572147719
    vertex 53.202300014627475 277.8573647560188 260.95973744116327
  endloop
endfacet
facet normal 0.8308935160833817 0.5531561183974308 0.06028493684232035
  outer loop
    vertex 54.63049647463684 280.9737541499295 259.0745376655792
    vertex 54.28392596520173 281.2781791206982 261.0579295416385
    vertex 54.49542029436705 280.959187830779 261.0699178919697
  endloop
endfacet
facet normal 0.8308935160833817 0.5531561183974308 0.06028493684232035
  outer loop
    vertex 54.28392596520173 281.2781791206982 261.0579295416385
    vertex 54.63049647463684 280.9737541499295 259.0745376655792
    vertex 54.4190021454714 281.2927454398498 259.06254931524865
  endloop
endfacet
facet normal 0.911369993149921 0.4064770140476382 0.06466198757252303
  outer loop
    vertex 54.78596613996854 280.62390465551744 259.082508191166
    vertex 54.49542029436705 280.959187830779 261.0699178919697
    vertex 54.65088995969887 280.6093383363662 261.07788841755666
  endloop
endfacet
facet normal 0.911369993149921 0.4064770140476382 0.06466198757252303
  outer loop
    vertex 54.49542029436705 280.959187830779 261.0699178919697
    vertex 54.78596613996854 280.62390465551744 259.082508191166
    vertex 54.63049647463684 280.9737541499295 259.0745376655792
  endloop
endfacet
facet normal 0.9664190145305278 -0.2489756211128211 0.06360368263967464
  outer loop
    vertex 54.78626980632081 279.1190065417196 259.07154295865774
    vertex 54.74613418637904 279.4752931200173 261.07605736893106
    vertex 54.6511936260511 279.1044402225689 261.0669231850482
  endloop
endfacet
facet normal 0.9664190145305278 -0.2489756211128211 0.06360368263967464
  outer loop
    vertex 54.74613418637904 279.4752931200173 261.07605736893106
    vertex 54.78626980632081 279.1190065417196 259.07154295865774
    vertex 54.88121036664872 279.4898594391685 259.08067714254025
  endloop
endfacet
facet normal 0.7271433945731623 0.6843411087937591 0.05421928202721513
  outer loop
    vertex 54.4190021454714 281.2927454398498 259.06254931524865
    vertex 54.02233100906622 281.5573771383703 261.04225916483216
    vertex 54.28392596520173 281.2781791206982 261.0579295416385
  endloop
endfacet
facet normal 0.7271433945731623 0.6843411087937591 0.05421928202721513
  outer loop
    vertex 54.02233100906622 281.5573771383703 261.04225916483216
    vertex 54.4190021454714 281.2927454398498 259.06254931524865
    vertex 54.15740718933581 281.5719434575214 259.0468789384408
  endloop
endfacet
facet normal 0.9942341211460093 -0.08396904882686518 0.06669116274390721
  outer loop
    vertex 54.88121036664872 279.4898594391685 259.08067714254025
    vertex 54.77802749108896 279.8568522700578 261.0810017589776
    vertex 54.74613418637904 279.4752931200173 261.07605736893106
  endloop
endfacet
facet normal 0.9942341211460093 -0.08396904882686518 0.06669116274390721
  outer loop
    vertex 54.77802749108896 279.8568522700578 261.0810017589776
    vertex 54.88121036664872 279.4898594391685 259.08067714254025
    vertex 54.91310367135864 279.8714185892087 259.0856215325875
  endloop
endfacet
facet normal -0.06753809013485175 -0.007283159575548596 0.9976901131952416
  outer loop
    vertex -0.012484394772745933 277.8728739651963 257.35750474147903
    vertex 53.20149289477639 281.85725849667483 260.9888821151259
    vertex -0.013291514623768763 281.87276770585225 257.38664941544215
  endloop
endfacet
facet normal -0.06753809013485175 -0.007283159575548596 0.9976901131952416
  outer loop
    vertex 53.20149289477639 281.85725849667483 260.9888821151259
    vertex -0.012484394772745933 277.8728739651963 257.35750474147903
    vertex 53.202300014627475 277.8573647560188 260.95973744116327
  endloop
endfacet
facet normal -0.06753809013485175 -0.007283159575548596 0.9976901131952416
  outer loop
    vertex 53.20149289477639 281.85725849667483 260.9888821151259
    vertex 53.202300014627475 277.8573647560188 260.95973744116327
    vertex 53.71796280050299 281.7889614407825 261.02334569478245
  endloop
endfacet
facet normal -0.06753809013485175 -0.007283159575548596 0.9976901131952416
  outer loop
    vertex 53.71796280050299 281.7889614407825 261.02334569478245
    vertex 53.202300014627475 277.8573647560188 260.95973744116327
    vertex 53.71874241841214 277.92536077427076 260.99519410150225
  endloop
endfacet
facet normal -0.06753809013485175 -0.007283159575548596 0.9976901131952416
  outer loop
    vertex 53.71796280050299 281.7889614407825 261.02334569478245
    vertex 53.71874241841214 277.92536077427076 260.99519410150225
    vertex 54.02233100906622 281.5573771383703 261.04225916483216
  endloop
endfacet
facet normal -0.06753809013485175 -0.007283159575548596 0.9976901131952416
  outer loop
    vertex 54.02233100906622 281.5573771383703 261.04225916483216
    vertex 53.71874241841214 277.92536077427076 260.99519410150225
    vertex 54.0230172021426 278.1567676904269 261.0174810931977
  endloop
endfacet
facet normal -0.06753809013485175 -0.007283159575548596 0.9976901131952416
  outer loop
    vertex 54.02233100906622 281.5573771383703 261.04225916483216
    vertex 54.0230172021426 278.1567676904269 261.0174810931977
    vertex 54.28392596520173 281.2781791206982 261.0579295416385
  endloop
endfacet
facet normal -0.06753809013485175 -0.007283159575548596 0.9976901131952416
  outer loop
    vertex 54.28392596520173 281.2781791206982 261.0579295416385
    vertex 54.0230172021426 278.1567676904269 261.0174810931977
    vertex 54.28449951291558 278.4358132595873 261.03721903489094
  endloop
endfacet
facet normal -0.06753809013485175 -0.007283159575548596 0.9976901131952416
  outer loop
    vertex 54.28392596520173 281.2781791206982 261.0579295416385
    vertex 54.28449951291558 278.4358132595873 261.03721903489094
    vertex 54.49542029436705 280.959187830779 261.0699178919697
  endloop
endfacet
facet normal -0.06753809013485175 -0.007283159575548596 0.9976901131952416
  outer loop
    vertex 54.49542029436705 280.959187830779 261.0699178919697
    vertex 54.28449951291558 278.4358132595873 261.03721903489094
    vertex 54.38551958103761 278.5882130315469 261.0451700551724
  endloop
endfacet
facet normal -0.06753809013485175 -0.007283159575548596 0.9976901131952416
  outer loop
    vertex 54.49542029436705 280.959187830779 261.0699178919697
    vertex 54.38551958103761 278.5882130315469 261.0451700551724
    vertex 54.49586513142802 278.7546813088796 261.053855059305
  endloop
endfacet
facet normal -0.06753809013485175 -0.007283159575548596 0.9976901131952416
  outer loop
    vertex 54.49542029436705 280.959187830779 261.0699178919697
    vertex 54.49586513142802 278.7546813088796 261.053855059305
    vertex 54.65088995969887 280.6093383363662 261.07788841755666
  endloop
endfacet
facet normal -0.06753809013485175 -0.007283159575548596 0.9976901131952416
  outer loop
    vertex 54.65088995969887 280.6093383363662 261.07788841755666
    vertex 54.49586513142802 278.7546813088796 261.053855059305
    vertex 54.6511936260511 279.1044402225689 261.0669231850482
  endloop
endfacet
facet normal -0.06753809013485175 -0.007283159575548596 0.9976901131952416
  outer loop
    vertex 54.65088995969887 280.6093383363662 261.07788841755666
    vertex 54.6511936260511 279.1044402225689 261.0669231850482
    vertex 54.745980196545986 280.2384300552971 261.0816178609365
  endloop
endfacet
facet normal -0.06753809013485175 -0.007283159575548596 0.9976901131952416
  outer loop
    vertex 54.745980196545986 280.2384300552971 261.0816178609365
    vertex 54.6511936260511 279.1044402225689 261.0669231850482
    vertex 54.74613418637904 279.4752931200173 261.07605736893106
  endloop
endfacet
facet normal -0.06753809013485175 -0.007283159575548596 0.9976901131952416
  outer loop
    vertex 54.745980196545986 280.2384300552971 261.0816178609365
    vertex 54.74613418637904 279.4752931200173 261.07605736893106
    vertex 54.77802749108896 279.8568522700578 261.0810017589776
  endloop
endfacet
facet normal 0.8311168513974414 -0.553640503831475 0.05222041593508998
  outer loop
    vertex 54.41957569318521 278.4503795787374 259.0418388085006
    vertex 54.38551958103761 278.5882130315469 261.0451700551724
    vertex 54.28449951291558 278.4358132595873 261.03721903489094
  endloop
endfacet
facet normal 0.8311168513974414 -0.553640503831475 0.05222041593508998
  outer loop
    vertex 54.38551958103761 278.5882130315469 261.0451700551724
    vertex 54.41957569318521 278.4503795787374 259.0418388085006
    vertex 54.520595761307284 278.60277935069826 259.04978982878225
  endloop
endfacet
facet normal 0.06753809013485175 0.007283159575548596 -0.9976901131952416
  outer loop
    vertex 53.336569075046015 281.8718248158255 258.9935018887347
    vertex 0.12259178549696276 277.88744028434746 255.36212451508854
    vertex 0.12178466564593576 281.88733402500293 255.39126918905131
  endloop
endfacet
facet normal 0.06753809013485175 0.007283159575548596 -0.9976901131952416
  outer loop
    vertex 0.12259178549696276 277.88744028434746 255.36212451508854
    vertex 53.336569075046015 281.8718248158255 258.9935018887347
    vertex 53.33737619489715 277.87193107517055 258.9643572147719
  endloop
endfacet
facet normal 0.06753809013485175 0.007283159575548596 -0.9976901131952416
  outer loop
    vertex 53.33737619489715 277.87193107517055 258.9643572147719
    vertex 53.336569075046015 281.8718248158255 258.9935018887347
    vertex 53.85303898077275 281.80352775993543 259.0279654683916
  endloop
endfacet
facet normal 0.06753809013485175 0.007283159575548596 -0.9976901131952416
  outer loop
    vertex 53.33737619489715 277.87193107517055 258.9643572147719
    vertex 53.85303898077275 281.80352775993543 259.0279654683916
    vertex 53.85381859868185 277.9399270934245 258.9998138751123
  endloop
endfacet
facet normal 0.06753809013485175 0.007283159575548596 -0.9976901131952416
  outer loop
    vertex 53.85381859868185 277.9399270934245 258.9998138751123
    vertex 53.85303898077275 281.80352775993543 259.0279654683916
    vertex 54.15740718933581 281.5719434575214 259.0468789384408
  endloop
endfacet
facet normal 0.06753809013485175 0.007283159575548596 -0.9976901131952416
  outer loop
    vertex 53.85381859868185 277.9399270934245 258.9998138751123
    vertex 54.15740718933581 281.5719434575214 259.0468789384408
    vertex 54.15809338241229 278.1713340095773 259.0221008668065
  endloop
endfacet
facet normal 0.06753809013485175 0.007283159575548596 -0.9976901131952416
  outer loop
    vertex 54.15809338241229 278.1713340095773 259.0221008668065
    vertex 54.15740718933581 281.5719434575214 259.0468789384408
    vertex 54.4190021454714 281.2927454398498 259.06254931524865
  endloop
endfacet
facet normal 0.06753809013485175 0.007283159575548596 -0.9976901131952416
  outer loop
    vertex 54.15809338241229 278.1713340095773 259.0221008668065
    vertex 54.4190021454714 281.2927454398498 259.06254931524865
    vertex 54.41957569318521 278.4503795787374 259.0418388085006
  endloop
endfacet
facet normal 0.06753809013485175 0.007283159575548596 -0.9976901131952416
  outer loop
    vertex 54.41957569318521 278.4503795787374 259.0418388085006
    vertex 54.4190021454714 281.2927454398498 259.06254931524865
    vertex 54.63049647463684 280.9737541499295 259.0745376655792
  endloop
endfacet
facet normal 0.06753809013485175 0.007283159575548596 -0.9976901131952416
  outer loop
    vertex 54.41957569318521 278.4503795787374 259.0418388085006
    vertex 54.63049647463684 280.9737541499295 259.0745376655792
    vertex 54.520595761307284 278.60277935069826 259.04978982878225
  endloop
endfacet
facet normal 0.06753809013485175 0.007283159575548596 -0.9976901131952416
  outer loop
    vertex 54.520595761307284 278.60277935069826 259.04978982878225
    vertex 54.63049647463684 280.9737541499295 259.0745376655792
    vertex 54.630941311697725 278.76924762803 259.05847483291495
  endloop
endfacet
facet normal 0.06753809013485175 0.007283159575548596 -0.9976901131952416
  outer loop
    vertex 54.630941311697725 278.76924762803 259.05847483291495
    vertex 54.63049647463684 280.9737541499295 259.0745376655792
    vertex 54.78596613996854 280.62390465551744 259.082508191166
  endloop
endfacet
facet normal 0.06753809013485175 0.007283159575548596 -0.9976901131952416
  outer loop
    vertex 54.630941311697725 278.76924762803 259.05847483291495
    vertex 54.78596613996854 280.62390465551744 259.082508191166
    vertex 54.78626980632081 279.1190065417196 259.07154295865774
  endloop
endfacet
facet normal 0.06753809013485175 0.007283159575548596 -0.9976901131952416
  outer loop
    vertex 54.78626980632081 279.1190065417196 259.07154295865774
    vertex 54.78596613996854 280.62390465551744 259.082508191166
    vertex 54.88105637681563 280.2529963744482 259.08623763454625
  endloop
endfacet
facet normal 0.06753809013485175 0.007283159575548596 -0.9976901131952416
  outer loop
    vertex 54.78626980632081 279.1190065417196 259.07154295865774
    vertex 54.88105637681563 280.2529963744482 259.08623763454625
    vertex 54.88121036664872 279.4898594391685 259.08067714254025
  endloop
endfacet
facet normal 0.06753809013485175 0.007283159575548596 -0.9976901131952416
  outer loop
    vertex 54.88121036664872 279.4898594391685 259.08067714254025
    vertex 54.88105637681563 280.2529963744482 259.08623763454625
    vertex 54.91310367135864 279.8714185892087 259.0856215325875
  endloop
endfacet
facet normal 0.8311168513974726 -0.553640503831428 0.05222041593509248
  outer loop
    vertex 54.520595761307284 278.60277935069826 259.04978982878225
    vertex 54.49586513142802 278.7546813088796 261.053855059305
    vertex 54.38551958103761 278.5882130315469 261.0451700551724
  endloop
endfacet
facet normal 0.8311168513974726 -0.553640503831428 0.05222041593509248
  outer loop
    vertex 54.49586513142802 278.7546813088796 261.053855059305
    vertex 54.520595761307284 278.60277935069826 259.04978982878225
    vertex 54.630941311697725 278.76924762803 259.05847483291495
  endloop
endfacet
facet normal 0.6033471665468976 -0.7967090355367369 0.035027265293664574
  outer loop
    vertex 54.15809338241229 278.1713340095773 259.0221008668065
    vertex 53.71874241841214 277.92536077427076 260.99519410150225
    vertex 53.85381859868185 277.9399270934245 258.9998138751123
  endloop
endfacet
facet normal 0.6033471665468976 -0.7967090355367369 0.035027265293664574
  outer loop
    vertex 53.71874241841214 277.92536077427076 260.99519410150225
    vertex 54.15809338241229 278.1713340095773 259.0221008668065
    vertex 54.0230172021426 278.1567676904269 261.0174810931977
  endloop
endfacet
facet normal 0.7274196600987415 -0.6847650346430377 0.04424347897884029
  outer loop
    vertex 54.15809338241229 278.1713340095773 259.0221008668065
    vertex 54.28449951291558 278.4358132595873 261.03721903489094
    vertex 54.0230172021426 278.1567676904269 261.0174810931977
  endloop
endfacet
facet normal 0.7274196600987415 -0.6847650346430377 0.04424347897884029
  outer loop
    vertex 54.28449951291558 278.4358132595873 261.03721903489094
    vertex 54.15809338241229 278.1713340095773 259.0221008668065
    vertex 54.41957569318521 278.4503795787374 259.0418388085006
  endloop
endfacet
facet normal 0.13042821234629856 -0.9914564782137448 0.0015916130645457851
  outer loop
    vertex 53.85381859868185 277.9399270934245 258.9998138751123
    vertex 53.202300014627475 277.8573647560188 260.95973744116327
    vertex 53.33737619489715 277.87193107517055 258.9643572147719
  endloop
endfacet
facet normal 0.13042821234629856 -0.9914564782137448 0.0015916130645457851
  outer loop
    vertex 53.202300014627475 277.8573647560188 260.95973744116327
    vertex 53.85381859868185 277.9399270934245 258.9998138751123
    vertex 53.71874241841214 277.92536077427076 260.99519410150225
  endloop
endfacet
facet normal -0.9977166760487585 0.0002907800303830147 -0.06753776559222725
  outer loop
    vertex -0.013291514623768763 281.87276770585225 257.38664941544215
    vertex 0.12259178549696276 277.88744028434746 255.36212451508854
    vertex -0.012484394772745933 277.8728739651963 257.35750474147903
  endloop
endfacet
facet normal -0.9977166760487585 0.0002907800303830147 -0.06753776559222725
  outer loop
    vertex 0.12259178549696276 277.88744028434746 255.36212451508854
    vertex -0.013291514623768763 281.87276770585225 257.38664941544215
    vertex 0.12178466564593576 281.88733402500293 255.39126918905131
  endloop
endfacet
facet normal 0.42972819738563844 0.902958291601384 -1.4428092669896367e-16
  outer loop
    vertex 1.694468990202524e-14 284.33556333019624 42.94358470875511
    vertex 1.0523438477010623 283.8347408349507 -15.1553152912449
    vertex -7.993605777301127e-15 284.33556333019624 -15.1553152912449
  endloop
endfacet
facet normal 0.42972819738563844 0.902958291601384 -1.4428092669896367e-16
  outer loop
    vertex 1.0523438477010623 283.8347408349507 -15.1553152912449
    vertex 1.694468990202524e-14 284.33556333019624 42.94358470875511
    vertex 1.0523438477010763 283.8347408349507 42.94358470875511
  endloop
endfacet
facet normal 0.75382636895737 0.6570736682173068 -9.62970479704908e-17
  outer loop
    vertex 1.9808163300508665 283.13033356989916 -15.1553152912449
    vertex 2.7465963651492205 282.2517940526417 42.9435847087551
    vertex 2.7465963651492156 282.2517940526417 -15.1553152912449
  endloop
endfacet
facet normal 0.75382636895737 0.6570736682173068 -9.62970479704908e-17
  outer loop
    vertex 2.7465963651492205 282.2517940526417 42.9435847087551
    vertex 1.9808163300508665 283.13033356989916 -15.1553152912449
    vertex 1.9808163300508765 283.13033356989916 42.943584708755104
  endloop
endfacet
facet normal 0.87172084518334 0.49000282455598493 -5.3214478839511135e-17
  outer loop
    vertex 2.7465963651492156 282.2517940526417 -15.1553152912449
    vertex 3.317665330984994 281.2358555792106 42.9435847087551
    vertex 3.3176653309849917 281.2358555792106 -15.1553152912449
  endloop
endfacet
facet normal 0.87172084518334 0.49000282455598493 -5.3214478839511135e-17
  outer loop
    vertex 3.317665330984994 281.2358555792106 42.9435847087551
    vertex 2.7465963651492156 282.2517940526417 -15.1553152912449
    vertex 2.7465963651492205 282.2517940526417 42.9435847087551
  endloop
endfacet
facet normal 0.7538263689573609 -0.6570736682173172 1.588316077633386e-16
  outer loop
    vertex 2.7465963651492253 275.67953260775073 -15.1553152912449
    vertex 1.9808163300508947 274.8009930904933 42.94358470875506
    vertex 1.9808163300508799 274.80099309049325 -15.1553152912449
  endloop
endfacet
facet normal 0.7538263689573609 -0.6570736682173172 1.588316077633386e-16
  outer loop
    vertex 1.9808163300508947 274.8009930904933 42.94358470875506
    vertex 2.7465963651492253 275.67953260775073 -15.1553152912449
    vertex 2.7465963651492356 275.67953260775073 42.94358470875507
  endloop
endfacet
facet normal 0.9531671261549635 0.30244409337510303 -2.1636614697219945e-17
  outer loop
    vertex 3.3176653309849917 281.2358555792106 -15.1553152912449
    vertex 3.670145820833916 280.12499633978643 42.94358470875509
    vertex 3.6701458208339157 280.12499633978643 -15.1553152912449
  endloop
endfacet
facet normal 0.9531671261549635 0.30244409337510303 -2.1636614697219945e-17
  outer loop
    vertex 3.670145820833916 280.12499633978643 42.94358470875509
    vertex 3.3176653309849917 281.2358555792106 -15.1553152912449
    vertex 3.317665330984994 281.2358555792106 42.9435847087551
  endloop
endfacet
facet normal -1.0 -1.2822533613262628e-15 -3.8353778713410925e-17
  outer loop
    vertex -7.993605777301127e-15 284.33556333019624 606.1350847087552
    vertex 2.614416819124589e-14 273.59576333019623 42.943584708755054
    vertex 9.103828801926284e-15 273.59576333019623 606.1350847087552
  endloop
endfacet
facet normal -1.0 -1.2822533613262628e-15 -3.8353778713410925e-17
  outer loop
    vertex 2.614416819124589e-14 273.59576333019623 42.943584708755054
    vertex -7.993605777301127e-15 284.33556333019624 606.1350847087552
    vertex 1.694468990202524e-14 284.33556333019624 42.94358470875511
  endloop
endfacet
facet normal -1.0 -1.2822533613262628e-15 -3.8353778713410925e-17
  outer loop
    vertex 1.694468990202524e-14 284.33556333019624 42.94358470875511
    vertex -7.993605777301127e-15 284.33556333019624 606.1350847087552
    vertex -7.993605777301127e-15 284.33556333019624 600.9419095797691
  endloop
endfacet
facet normal 0.9531671261549691 -0.3024440933750852 -7.316707768448717e-17
  outer loop
    vertex 3.6701458208339184 277.80633032060604 -15.1553152912449
    vertex 3.3176653309850046 276.69547108118184 42.94358470875507
    vertex 3.317665330984999 276.69547108118184 -15.1553152912449
  endloop
endfacet
facet normal 0.9531671261549691 -0.3024440933750852 -7.316707768448717e-17
  outer loop
    vertex 3.3176653309850046 276.69547108118184 42.94358470875507
    vertex 3.6701458208339184 277.80633032060604 -15.1553152912449
    vertex 3.6701458208339215 277.80633032060604 42.943584708755075
  endloop
endfacet
facet normal 0.42972819738559687 -0.9029582916014038 -1.3930572233002078e-16
  outer loop
    vertex 1.0523438477010985 274.0965858254417 42.943584708755054
    vertex 9.103828801926284e-15 273.59576333019623 -15.1553152912449
    vertex 1.0523438477010778 274.0965858254417 -15.1553152912449
  endloop
endfacet
facet normal 0.42972819738559687 -0.9029582916014038 -1.3930572233002078e-16
  outer loop
    vertex 9.103828801926284e-15 273.59576333019623 -15.1553152912449
    vertex 1.0523438477010985 274.0965858254417 42.943584708755054
    vertex 2.614416819124589e-14 273.59576333019623 42.943584708755054
  endloop
endfacet
facet normal 0.8717208451833414 -0.4900028245559827 -1.1973257738890034e-16
  outer loop
    vertex 3.317665330984999 276.69547108118184 -15.1553152912449
    vertex 2.7465963651492356 275.67953260775073 42.94358470875507
    vertex 2.7465963651492253 275.67953260775073 -15.1553152912449
  endloop
endfacet
facet normal 0.8717208451833414 -0.4900028245559827 -1.1973257738890034e-16
  outer loop
    vertex 2.7465963651492356 275.67953260775073 42.94358470875507
    vertex 3.317665330984999 276.69547108118184 -15.1553152912449
    vertex 3.3176653309850046 276.69547108118184 42.94358470875507
  endloop
endfacet
facet normal 0.9947597983525595 -0.10223963801566972 -3.049358939144358e-17
  outer loop
    vertex 3.7893000000000012 278.9656633301962 -15.1553152912449
    vertex 3.6701458208339215 277.80633032060604 42.943584708755075
    vertex 3.6701458208339184 277.80633032060604 -15.1553152912449
  endloop
endfacet
facet normal 0.9947597983525595 -0.10223963801566972 -3.049358939144358e-17
  outer loop
    vertex 3.6701458208339215 277.80633032060604 42.943584708755075
    vertex 3.7893000000000012 278.9656633301962 -15.1553152912449
    vertex 3.7893000000000017 278.9656633301962 42.94358470875508
  endloop
endfacet
facet normal 0.6044130747113489 -0.7966710959473638 2.0488492049175211e-16
  outer loop
    vertex 1.9808163300508947 274.8009930904933 42.94358470875506
    vertex 1.0523438477010778 274.0965858254417 -15.1553152912449
    vertex 1.9808163300508799 274.80099309049325 -15.1553152912449
  endloop
endfacet
facet normal 0.6044130747113489 -0.7966710959473638 2.0488492049175211e-16
  outer loop
    vertex 1.0523438477010778 274.0965858254417 -15.1553152912449
    vertex 1.9808163300508947 274.8009930904933 42.94358470875506
    vertex 1.0523438477010985 274.0965858254417 42.943584708755054
  endloop
endfacet
facet normal 0.9947597983525597 0.10223963801566816 -7.675020699898276e-18
  outer loop
    vertex 3.6701458208339157 280.12499633978643 -15.1553152912449
    vertex 3.7893000000000017 278.9656633301962 42.94358470875508
    vertex 3.7893000000000012 278.9656633301962 -15.1553152912449
  endloop
endfacet
facet normal 0.9947597983525597 0.10223963801566816 -7.675020699898276e-18
  outer loop
    vertex 3.7893000000000017 278.9656633301962 42.94358470875508
    vertex 3.6701458208339157 280.12499633978643 -15.1553152912449
    vertex 3.670145820833916 280.12499633978643 42.94358470875509
  endloop
endfacet
facet normal 0.6044130747113321 0.7966710959473765 -1.252054555629041e-16
  outer loop
    vertex 1.0523438477010763 283.8347408349507 42.94358470875511
    vertex 1.9808163300508665 283.13033356989916 -15.1553152912449
    vertex 1.0523438477010623 283.8347408349507 -15.1553152912449
  endloop
endfacet
facet normal 0.6044130747113321 0.7966710959473765 -1.252054555629041e-16
  outer loop
    vertex 1.9808163300508665 283.13033356989916 -15.1553152912449
    vertex 1.0523438477010763 283.8347408349507 42.94358470875511
    vertex 1.9808163300508765 283.13033356989916 42.943584708755104
  endloop
endfacet
facet normal 0.604413074711332 0.7966710959473765 1.2835719222134678e-17
  outer loop
    vertex 1.0523438477010763 283.8347408349507 42.94358470875511
    vertex 1.9808163300508665 283.13033356989916 606.1350847087552
    vertex 1.9808163300508765 283.13033356989916 42.943584708755104
  endloop
endfacet
facet normal 0.604413074711332 0.7966710959473765 1.2835719222134678e-17
  outer loop
    vertex 1.9808163300508665 283.13033356989916 606.1350847087552
    vertex 1.0523438477010763 283.8347408349507 42.94358470875511
    vertex 1.0523438477010623 283.8347408349507 606.1350847087552
  endloop
endfacet
facet normal 0.4297281973856381 0.9029582916013841 1.5449727527899465e-17
  outer loop
    vertex -7.993605777301127e-15 284.33556333019624 600.9419095797691
    vertex 1.0523438477010763 283.8347408349507 42.94358470875511
    vertex 1.694468990202524e-14 284.33556333019624 42.94358470875511
  endloop
endfacet
facet normal 0.4297281973856381 0.9029582916013841 1.5449727527899465e-17
  outer loop
    vertex 1.0523438477010763 283.8347408349507 42.94358470875511
    vertex -7.993605777301127e-15 284.33556333019624 600.9419095797691
    vertex 1.0523438477010623 283.8347408349507 606.1350847087552
  endloop
endfacet
facet normal 0.4297281973856381 0.9029582916013841 1.5449727527899465e-17
  outer loop
    vertex 1.0523438477010623 283.8347408349507 606.1350847087552
    vertex -7.993605777301127e-15 284.33556333019624 600.9419095797691
    vertex -7.993605777301127e-15 284.33556333019624 606.1350847087552
  endloop
endfacet
facet normal 0.42972819738559687 -0.9029582916014038 1.432434602582158e-17
  outer loop
    vertex 1.0523438477010778 274.0965858254417 606.1350847087552
    vertex 2.614416819124589e-14 273.59576333019623 42.943584708755054
    vertex 1.0523438477010985 274.0965858254417 42.943584708755054
  endloop
endfacet
facet normal 0.42972819738559687 -0.9029582916014038 1.432434602582158e-17
  outer loop
    vertex 2.614416819124589e-14 273.59576333019623 42.943584708755054
    vertex 1.0523438477010778 274.0965858254417 606.1350847087552
    vertex 9.103828801926284e-15 273.59576333019623 606.1350847087552
  endloop
endfacet
facet normal 0.6044130747113488 -0.7966710959473637 -2.11266686959485e-17
  outer loop
    vertex 1.9808163300508947 274.8009930904933 42.94358470875506
    vertex 1.0523438477010778 274.0965858254417 606.1350847087552
    vertex 1.0523438477010985 274.0965858254417 42.943584708755054
  endloop
endfacet
facet normal 0.6044130747113488 -0.7966710959473637 -2.11266686959485e-17
  outer loop
    vertex 1.0523438477010778 274.0965858254417 606.1350847087552
    vertex 1.9808163300508947 274.8009930904933 42.94358470875506
    vertex 1.9808163300508799 274.80099309049325 606.1350847087552
  endloop
endfacet
facet normal 0.7538263689573609 -0.6570736682173172 -1.6328909965923835e-17
  outer loop
    vertex 1.9808163300508947 274.8009930904933 42.94358470875506
    vertex 2.7465963651492253 275.67953260775073 606.1350847087552
    vertex 1.9808163300508799 274.80099309049325 606.1350847087552
  endloop
endfacet
facet normal 0.7538263689573609 -0.6570736682173172 -1.6328909965923835e-17
  outer loop
    vertex 2.7465963651492253 275.67953260775073 606.1350847087552
    vertex 1.9808163300508947 274.8009930904933 42.94358470875506
    vertex 2.7465963651492356 275.67953260775073 42.94358470875507
  endloop
endfacet
facet normal 0.8717208451833414 -0.4900028245559826 1.2341630227196584e-17
  outer loop
    vertex 3.3176653309850046 276.69547108118184 42.94358470875507
    vertex 2.7465963651492253 275.67953260775073 606.1350847087552
    vertex 2.7465963651492356 275.67953260775073 42.94358470875507
  endloop
endfacet
facet normal 0.8717208451833414 -0.4900028245559826 1.2341630227196584e-17
  outer loop
    vertex 2.7465963651492253 275.67953260775073 606.1350847087552
    vertex 3.3176653309850046 276.69547108118184 42.94358470875507
    vertex 3.317665330984999 276.69547108118184 606.1350847087552
  endloop
endfacet
facet normal 0.9531671261549691 -0.30244409337508527 7.516051368965243e-18
  outer loop
    vertex 3.6701458208339215 277.80633032060604 42.943584708755075
    vertex 3.317665330984999 276.69547108118184 606.1350847087552
    vertex 3.3176653309850046 276.69547108118184 42.94358470875507
  endloop
endfacet
facet normal 0.9531671261549691 -0.30244409337508527 7.516051368965243e-18
  outer loop
    vertex 3.317665330984999 276.69547108118184 606.1350847087552
    vertex 3.6701458208339215 277.80633032060604 42.943584708755075
    vertex 3.6701458208339184 277.80633032060604 606.1350847087552
  endloop
endfacet
facet normal 0.9947597983525597 -0.10223963801566965 1.993559008195994e-18
  outer loop
    vertex 3.7893000000000017 278.9656633301962 42.94358470875508
    vertex 3.6701458208339184 277.80633032060604 606.1350847087552
    vertex 3.6701458208339215 277.80633032060604 42.943584708755075
  endloop
endfacet
facet normal 0.9947597983525597 -0.10223963801566965 1.993559008195994e-18
  outer loop
    vertex 3.6701458208339184 277.80633032060604 606.1350847087552
    vertex 3.7893000000000017 278.9656633301962 42.94358470875508
    vertex 3.7893000000000012 278.9656633301962 606.1350847087552
  endloop
endfacet
facet normal 0.9947597983525597 -0.10223963801566965 1.993559008195994e-18
  outer loop
    vertex 3.7893000000000012 278.9656633301962 606.1350847087552
    vertex 3.7893000000000017 278.9656633301962 42.94358470875508
    vertex 3.7893000000000012 278.9656633301962 44.25608470875508
  endloop
endfacet
facet normal 0.9947597983525597 -0.10223963801566965 1.993559008195994e-18
  outer loop
    vertex 3.7893000000000012 278.9656633301962 606.1350847087552
    vertex 3.7893000000000012 278.9656633301962 44.25608470875508
    vertex 3.7893000000000012 278.9656633301962 246.14591534311916
  endloop
endfacet
facet normal 0.9947597983525597 -0.10223963801566965 1.993559008195994e-18
  outer loop
    vertex 3.7893000000000012 278.9656633301962 606.1350847087552
    vertex 3.7893000000000012 278.9656633301962 246.14591534311916
    vertex 3.7893000000000012 278.9656633301962 432.06610740059114
  endloop
endfacet
facet normal 0.9947597983525597 -0.10223963801566965 1.993559008195994e-18
  outer loop
    vertex 3.7893000000000012 278.9656633301962 606.1350847087552
    vertex 3.7893000000000012 278.9656633301962 432.06610740059114
    vertex 3.7893000000000012 278.9656633301962 437.4046614728214
  endloop
endfacet
facet normal 0.9947597983525597 -0.10223963801566965 1.993559008195994e-18
  outer loop
    vertex 3.7893000000000012 278.9656633301962 606.1350847087552
    vertex 3.7893000000000012 278.9656633301962 437.4046614728214
    vertex 3.7893000000000012 278.9656633301962 593.2285564974106
  endloop
endfacet
facet normal 0.9947597983525597 0.10223963801566799 5.026809307258777e-19
  outer loop
    vertex 3.670145820833916 280.12499633978643 42.94358470875509
    vertex 3.7893000000000012 278.9656633301962 44.25608470875508
    vertex 3.7893000000000017 278.9656633301962 42.94358470875508
  endloop
endfacet
facet normal 0.9947597983525597 0.10223963801566799 5.026809307258777e-19
  outer loop
    vertex 3.7893000000000012 278.9656633301962 44.25608470875508
    vertex 3.670145820833916 280.12499633978643 42.94358470875509
    vertex 3.7893000000000012 278.9656633301962 246.14591534311916
  endloop
endfacet
facet normal 0.9947597983525597 0.10223963801566799 5.026809307258777e-19
  outer loop
    vertex 3.7893000000000012 278.9656633301962 246.14591534311916
    vertex 3.670145820833916 280.12499633978643 42.94358470875509
    vertex 3.7893000000000012 278.9656633301962 432.06610740059114
  endloop
endfacet
facet normal 0.9947597983525597 0.10223963801566799 5.026809307258777e-19
  outer loop
    vertex 3.7893000000000012 278.9656633301962 432.06610740059114
    vertex 3.670145820833916 280.12499633978643 42.94358470875509
    vertex 3.7893000000000012 278.9656633301962 437.4046614728214
  endloop
endfacet
facet normal 0.9947597983525597 0.10223963801566799 5.026809307258777e-19
  outer loop
    vertex 3.7893000000000012 278.9656633301962 437.4046614728214
    vertex 3.670145820833916 280.12499633978643 42.94358470875509
    vertex 3.7893000000000012 278.9656633301962 593.2285564974106
  endloop
endfacet
facet normal 0.9947597983525597 0.10223963801566799 5.026809307258777e-19
  outer loop
    vertex 3.7893000000000012 278.9656633301962 593.2285564974106
    vertex 3.670145820833916 280.12499633978643 42.94358470875509
    vertex 3.7893000000000012 278.9656633301962 606.1350847087552
  endloop
endfacet
facet normal 0.9947597983525597 0.10223963801566799 5.026809307258777e-19
  outer loop
    vertex 3.7893000000000012 278.9656633301962 606.1350847087552
    vertex 3.670145820833916 280.12499633978643 42.94358470875509
    vertex 3.6701458208339157 280.12499633978643 606.1350847087552
  endloop
endfacet
facet normal 0.9531671261549635 0.30244409337510303 2.263356378154294e-18
  outer loop
    vertex 3.317665330984994 281.2358555792106 42.9435847087551
    vertex 3.6701458208339157 280.12499633978643 606.1350847087552
    vertex 3.670145820833916 280.12499633978643 42.94358470875509
  endloop
endfacet
facet normal 0.9531671261549635 0.30244409337510303 2.263356378154294e-18
  outer loop
    vertex 3.6701458208339157 280.12499633978643 606.1350847087552
    vertex 3.317665330984994 281.2358555792106 42.9435847087551
    vertex 3.3176653309849917 281.2358555792106 606.1350847087552
  endloop
endfacet
facet normal 0.87172084518334 0.49000282455598493 5.506866652008595e-18
  outer loop
    vertex 2.7465963651492205 282.2517940526417 42.9435847087551
    vertex 3.3176653309849917 281.2358555792106 606.1350847087552
    vertex 3.317665330984994 281.2358555792106 42.9435847087551
  endloop
endfacet
facet normal 0.87172084518334 0.49000282455598493 5.506866652008595e-18
  outer loop
    vertex 3.3176653309849917 281.2358555792106 606.1350847087552
    vertex 2.7465963651492205 282.2517940526417 42.9435847087551
    vertex 2.7465963651492156 282.2517940526417 606.1350847087552
  endloop
endfacet
facet normal 0.7538263689573699 0.6570736682173067 9.963257559049789e-18
  outer loop
    vertex 1.9808163300508765 283.13033356989916 42.943584708755104
    vertex 2.7465963651492156 282.2517940526417 606.1350847087552
    vertex 2.7465963651492205 282.2517940526417 42.9435847087551
  endloop
endfacet
facet normal 0.7538263689573699 0.6570736682173067 9.963257559049789e-18
  outer loop
    vertex 2.7465963651492156 282.2517940526417 606.1350847087552
    vertex 1.9808163300508765 283.13033356989916 42.943584708755104
    vertex 1.9808163300508665 283.13033356989916 606.1350847087552
  endloop
endfacet
endsolid 1984 Ericson 38-200
